<svg width="24" height="24" viewBox="0 0 24 24" fill="none" xmlns="http://www.w3.org/2000/svg">
<g clip-path="url(#clip0_3_9)">
<path d="M2.757 12H25.243" stroke="white" stroke-width="3" stroke-linecap="round" stroke-linejoin="round"/>
<mask id="path-2-inside-1_3_9" fill="white">
<path d="M12.743 1L1.10001 11.249C0.9936 11.3428 0.908379 11.4583 0.850006 11.5876C0.791633 11.7169 0.761444 11.8571 0.761444 11.999C0.761444 12.1409 0.791633 12.2811 0.850006 12.4104C0.908379 12.5397 0.9936 12.6552 1.10001 12.749L12.743 23"/>
</mask>
<path d="M14.7252 3.25184C15.9689 2.15708 16.0896 0.261428 14.9948 -0.982228C13.9001 -2.22588 12.0044 -2.34659 10.7608 -1.25184L14.7252 3.25184ZM1.10001 11.249L-0.882223 8.99716L-0.884307 8.999L1.10001 11.249ZM0.761444 11.999H-2.23856H0.761444ZM1.10001 12.749L-0.884308 14.999L-0.88244 15.0006L1.10001 12.749ZM10.7606 25.2516C12.0041 26.3465 13.8998 26.226 14.9947 24.9824C16.0895 23.7389 15.969 21.8432 14.7255 20.7484L10.7606 25.2516ZM10.7608 -1.25184L-0.882222 8.99716L3.08223 13.5008L14.7252 3.25184L10.7608 -1.25184ZM-0.884307 8.999C-1.30994 9.37437 -1.65082 9.83601 -1.88431 10.3532L3.58432 12.8219C3.46758 13.0805 3.29714 13.3113 3.08432 13.499L-0.884307 8.999ZM-1.88431 10.3532C-2.1178 10.8705 -2.23856 11.4315 -2.23856 11.999H3.76144C3.76144 12.2828 3.70106 12.5633 3.58432 12.8219L-1.88431 10.3532ZM-2.23856 11.999C-2.23856 12.5665 -2.1178 13.1275 -1.88431 13.6448L3.58432 11.1761C3.70107 11.4347 3.76144 11.7152 3.76144 11.999H-2.23856ZM-1.88431 13.6448C-1.65081 14.162 -1.30993 14.6236 -0.884307 14.999L3.08432 10.499C3.29713 10.6867 3.46757 10.9175 3.58432 11.1761L-1.88431 13.6448ZM-0.88244 15.0006L10.7606 25.2516L14.7255 20.7484L3.08245 10.4974L-0.88244 15.0006Z" fill="white" mask="url(#path-2-inside-1_3_9)"/>
</g>
<defs>
<clipPath id="clip0_3_9">
<rect width="24" height="24" fill="white"/>
</clipPath>
</defs>
</svg>
